<svg width="282" height="67" viewBox="0 0 282 67" fill="none" xmlns="http://www.w3.org/2000/svg">
<g filter="url(#filter0_i_33_90)">
<path d="M1.63738 27.52C1.57338 27.456 1.44538 27.36 1.25338 27.232C1.06138 27.04 0.965375 26.72 0.965375 26.272C1.34938 23.968 1.66938 20.448 1.92538 15.712C2.05338 12.96 2.21338 10.816 2.40538 9.27999C2.59738 7.744 2.91738 6.528 3.36538 5.632C3.94138 5.952 4.29338 6.4 4.42138 6.976C4.54938 7.488 4.61338 8.16 4.61338 8.992C4.61338 9.76 4.51738 10.592 4.32538 11.488C4.26138 11.808 4.19738 12.288 4.13338 12.928C4.06938 13.504 4.03738 14.016 4.03738 14.464C4.03738 14.784 4.10138 15.168 4.22938 15.616C4.42138 16.064 4.54938 16.352 4.61338 16.48C4.61338 16.736 4.51738 17.504 4.32538 18.784C4.13338 20 4.03738 21.92 4.03738 24.544C4.03738 24.864 4.06938 25.216 4.13338 25.6C4.26138 25.92 4.38938 26.144 4.51738 26.272H7.49338L8.16538 25.024L7.78137 22.048C7.14138 17.952 6.82138 14.848 6.82138 12.736C6.82138 11.648 6.91738 10.688 7.10938 9.856C7.36538 9.024 7.49338 8.384 7.49338 7.936C7.49338 7.744 7.39738 7.52 7.20538 7.264C7.07738 6.944 6.94938 6.752 6.82138 6.688C7.26938 6.56 7.90938 6.24 8.74138 5.72799C9.57338 5.216 10.1174 4.896 10.3734 4.768C10.3734 5.408 10.5974 5.856 11.0454 6.112C11.9414 6.112 13.0294 6.048 14.3094 5.92C15.6534 5.792 16.7414 5.696 17.5734 5.632C17.8294 5.504 18.0534 5.376 18.2454 5.248C18.4374 5.12 18.5974 5.024 18.7254 4.96C18.6614 5.024 18.6294 5.12 18.6294 5.248C18.6294 5.824 19.3014 6.24 20.6454 6.496C22.0534 6.688 23.3334 6.784 24.4854 6.784C24.8054 6.784 25.6054 6.56 26.8854 6.112C28.2294 5.6 28.9014 5.216 28.9014 4.96V4.384L26.5974 4.192H11.6214V4C11.1734 4 10.4374 4.064 9.41338 4.192C8.38938 4.32 7.52538 4.384 6.82138 4.384C6.50138 4.32 5.79738 4.224 4.70938 4.096C3.68538 3.968 3.04538 3.872 2.78938 3.808C2.78938 3.296 2.94938 2.784 3.26938 2.272C3.58938 1.76 3.84538 1.504 4.03738 1.504C4.29338 1.568 4.64538 1.664 5.09338 1.792C5.60538 1.856 6.05338 1.92 6.43738 1.984C7.14138 1.984 8.38938 1.792 10.1814 1.408C11.9734 1.024 13.3494 0.831995 14.3094 0.831995C14.3734 0.831995 14.6614 0.959995 15.1734 1.216C15.6854 1.408 16.1014 1.504 16.4214 1.504C16.5494 1.44 16.7414 1.344 16.9974 1.216C17.2534 1.024 17.4454 0.895998 17.5734 0.831995C17.9574 0.895998 18.3734 1.024 18.8214 1.216C19.3334 1.344 19.7174 1.44 19.9734 1.504C20.4854 1.44 21.0294 1.344 21.6054 1.216C22.1814 1.024 22.5974 0.895998 22.8534 0.831995C24.3894 0.831995 26.3734 1.056 28.8054 1.504C31.2374 1.952 33.0294 2.528 34.1814 3.232C35.5254 4 36.7094 5.472 37.7334 7.648C38.8214 9.824 39.6854 12.16 40.3254 14.656C40.9654 17.152 41.2854 19.232 41.2854 20.896C41.2854 22.368 40.8694 23.936 40.0374 25.6C39.2694 27.2 38.2774 28.992 37.0614 30.976C37.6374 31.616 38.4374 32.384 39.4614 33.28C41.0614 34.624 42.2454 35.968 43.0134 37.312C43.7814 38.592 44.1654 40.544 44.1654 43.168C44.1654 43.488 44.2934 43.968 44.5494 44.608C44.8054 45.184 44.9334 45.888 44.9334 46.72C44.9334 50.304 44.0054 53.28 42.1494 55.648C40.3574 57.952 38.0534 60.192 35.2374 62.368C34.3414 63.008 33.7974 63.424 33.6054 63.616C33.0934 64.192 31.6534 64.48 29.2854 64.48H27.2694C27.0774 64.48 26.4694 64.608 25.4454 64.864C24.4854 65.184 22.6614 65.344 19.9734 65.344L18.7254 64.768C17.1894 64.768 14.9494 64.896 12.0054 65.152C11.2374 65.216 10.3094 65.28 9.22137 65.344C8.13338 65.408 6.85338 65.44 5.38138 65.44L2.78938 65.344L1.63738 64.192V27.52ZM29.1894 6.016C28.3574 6.016 27.6854 6.208 27.1734 6.592C26.6614 6.976 26.4054 7.584 26.4054 8.41599C27.2374 8.41599 27.9734 8.224 28.6134 7.84C29.2534 7.456 29.7014 6.88 29.9574 6.112L29.1894 6.016ZM31.7814 6.016C31.1414 6.016 30.5654 6.368 30.0534 7.07199C29.6054 7.776 29.3814 8.48 29.3814 9.184C30.2774 9.184 31.3014 9.12 32.4534 8.992C33.6054 8.864 34.1814 8.64 34.1814 8.32C34.1814 7.744 33.8934 7.232 33.3174 6.784C32.7414 6.272 32.2294 6.016 31.7814 6.016ZM10.5654 25.024C11.1414 25.664 11.7174 26.08 12.2934 26.272C12.9334 26.4 13.8614 26.464 15.0774 26.464C15.2694 26.464 16.8374 26.496 19.7814 26.56C22.7254 26.624 25.5734 26.144 28.3254 25.12C31.0774 24.032 32.4534 22.464 32.4534 20.416L31.7814 19.168C31.8454 19.04 31.9414 18.848 32.0694 18.592C32.2614 18.336 32.3894 18.144 32.4534 18.016C32.4534 16.544 31.6214 14.56 29.9574 12.064C29.2534 11.04 27.9734 10.368 26.1174 10.048C24.2614 9.728 21.7334 9.504 18.5334 9.376C16.0374 9.248 14.2134 9.12 13.0614 8.992C11.9734 8.8 11.3014 8.448 11.0454 7.936C10.5334 8.448 10.1814 8.992 9.98938 9.568C9.86138 10.144 9.79738 10.848 9.79738 11.68C9.79738 13.28 9.92538 15.552 10.1814 18.496C10.4374 21.44 10.5654 23.616 10.5654 25.024ZM31.2054 10.336C31.3974 10.464 31.6214 10.592 31.8774 10.72C32.1334 10.848 32.3574 10.912 32.5494 10.912C32.9334 10.912 33.6694 10.528 34.7574 9.76L33.6054 9.664H33.0294C32.2614 9.664 31.6534 9.888 31.2054 10.336ZM34.7574 22.72C34.8214 23.168 35.1734 23.392 35.8134 23.392C37.3494 23.392 38.2774 23.232 38.5974 22.912C38.9174 22.592 39.0454 22.08 38.9814 21.376C38.9814 20.672 38.9814 20.16 38.9814 19.84C38.9814 18.112 38.6934 16.096 38.1174 13.792C37.5414 11.488 36.6454 10.336 35.4294 10.336C34.7894 10.336 34.1494 10.688 33.5094 11.392C32.9334 12.032 32.6454 12.672 32.6454 13.312C33.3494 13.312 34.2774 13.472 35.4294 13.792L34.7574 14.464L35.4294 14.56C35.7494 14.56 35.9734 14.528 36.1014 14.464C36.2934 14.336 36.4854 14.112 36.6774 13.792C36.6774 14.368 36.3574 15.04 35.7174 15.808C35.4614 16.128 35.2374 16.48 35.0454 16.864C34.8534 17.184 34.7574 17.568 34.7574 18.016C34.7574 18.208 35.0134 18.432 35.5254 18.688C36.1014 18.944 36.4854 19.104 36.6774 19.168C35.8454 19.488 35.2054 19.904 34.7574 20.416C35.2694 20.416 35.7814 20.32 36.2934 20.128C36.8694 19.936 37.3494 19.84 37.7334 19.84L34.7574 22.72ZM33.6054 25.696C34.5014 25.248 35.1094 24.864 35.4294 24.544H33.6054V25.696ZM32.4534 28.192C33.4134 28.192 34.4374 27.968 35.5254 27.52C36.6134 27.008 37.1574 26.304 37.1574 25.408L37.0614 25.024L32.4534 27.52V28.192ZM4.42138 59.008C4.42138 60.8 4.64538 61.92 5.09338 62.368L8.74138 61.888V61.216H7.01338C7.01338 60.832 7.20538 60.384 7.58938 59.872C7.97338 59.296 8.16538 58.88 8.16538 58.624C8.16538 57.984 7.90938 57.44 7.39738 56.992C6.94938 56.544 6.40538 56.192 5.76538 55.936C6.02138 55.872 6.24538 55.648 6.43738 55.264C6.69338 54.88 6.85338 54.624 6.91738 54.496C6.91738 54.304 6.75738 54.016 6.43738 53.632C6.18138 53.248 5.95738 53.024 5.76538 52.96H7.01338C7.01338 52.32 6.91738 51.616 6.72538 50.848C6.66138 50.592 6.59738 50.304 6.53338 49.984C6.46938 49.664 6.43738 49.28 6.43738 48.832C6.43738 48.704 6.50138 48.512 6.62938 48.256C6.82138 48 6.91738 47.488 6.91738 46.72C6.91738 46.208 6.85338 45.696 6.72538 45.184C6.59738 44.672 6.53338 44.192 6.53338 43.744C6.59738 43.744 6.66138 43.808 6.72538 43.936C6.78938 44 6.82138 44.032 6.82138 44.032C7.01338 43.904 7.17338 43.744 7.30138 43.552C7.42938 43.296 7.49338 43.072 7.49338 42.88V35.104C8.45338 34.528 9.57338 33.76 10.8534 32.8C12.1974 31.776 13.2534 30.784 14.0214 29.824L12.8694 28.672C12.2294 28.352 10.8854 28.064 8.83738 27.808C6.78938 27.488 5.12538 27.328 3.84538 27.328L3.74938 27.52C3.74938 27.648 3.87738 27.936 4.13338 28.384C4.38938 28.768 4.51738 29.056 4.51738 29.248C4.51738 29.888 4.45338 30.72 4.32538 31.744C4.06938 33.024 3.94138 34.496 3.94138 36.16C3.94138 37.248 3.97338 38.176 4.03738 38.944C4.10138 39.712 4.16538 40.352 4.22938 40.864C4.48538 42.912 4.61338 44.512 4.61338 45.664C4.61338 46.56 4.58138 47.232 4.51738 47.68L5.09338 48.16C4.64538 48.288 4.42138 48.864 4.42138 49.888C4.42138 50.592 4.54938 51.392 4.80538 52.288C4.80538 52.48 4.83738 52.768 4.90138 53.152C5.02938 53.472 5.09338 53.824 5.09338 54.208C5.09338 54.656 4.96538 55.296 4.70938 56.128C4.51738 56.896 4.42138 57.856 4.42138 59.008ZM23.5254 29.248C21.3494 29.248 18.8214 29.6 15.9414 30.304C13.0614 30.944 11.6214 32.384 11.6214 34.624C15.8454 32.832 18.6294 31.456 19.9734 30.496L16.9974 33.472V34.144C17.8934 34.144 18.5334 34.016 18.9174 33.76C19.3014 33.504 19.6854 33.12 20.0694 32.608C20.4534 32.032 20.9974 31.488 21.7014 30.976C22.0854 30.72 22.7574 30.528 23.7174 30.4C24.4854 30.336 25.1254 30.208 25.6374 30.016C26.2134 29.76 26.6934 29.312 27.0774 28.672C27.0774 28.608 27.0134 28.512 26.8854 28.384C26.7574 28.256 26.6614 28.16 26.5974 28.096C26.2774 28.096 25.7014 28.256 24.8694 28.576C24.0374 28.832 23.5894 29.056 23.5254 29.248ZM29.9574 28.096C29.5734 28.096 28.4854 28.672 26.6934 29.824C24.9014 30.976 23.2374 32.192 21.7014 33.472L23.2374 33.568C24.3254 33.568 25.1894 33.344 25.8294 32.896C26.5334 32.448 27.1414 31.648 27.6534 30.496C27.6534 30.944 27.5254 31.456 27.2694 32.032C27.0134 32.544 26.8854 32.896 26.8854 33.088C27.9094 33.088 29.1894 32.672 30.7254 31.84C32.2614 31.008 33.0294 30.24 33.0294 29.536C33.0294 29.408 32.5814 29.152 31.6854 28.768C30.7894 28.32 30.2134 28.096 29.9574 28.096ZM15.8454 60.064C15.5254 60.064 14.5654 60.288 12.9654 60.736C11.3654 61.12 10.5654 61.504 10.5654 61.888V62.656C11.2694 62.656 12.1654 62.432 13.2534 61.984C14.3414 61.472 15.0134 61.216 15.2694 61.216C15.5254 61.28 15.9094 61.408 16.4214 61.6C16.9334 61.728 17.3174 61.824 17.5734 61.888H17.9574C18.0854 61.888 18.3414 61.664 18.7254 61.216C19.1094 60.768 19.3334 60.384 19.3974 60.064C19.4614 60.256 19.5894 60.704 19.7814 61.408C19.9734 62.048 20.2294 62.368 20.5494 62.368H25.2534L25.8294 63.04L26.5974 61.888C26.9814 61.952 27.4934 61.984 28.1334 61.984C28.7094 61.984 29.3174 61.792 29.9574 61.408C30.5974 61.024 31.0134 60.8 31.2054 60.736C33.9574 59.904 36.1014 59.04 37.6374 58.144C39.2374 57.184 40.4534 55.904 41.2854 54.304C42.1174 52.64 42.5334 50.432 42.5334 47.68C42.5334 46.72 42.0854 44.48 41.1894 40.96C40.3574 37.376 39.6214 35.424 38.9814 35.104C38.7254 35.04 38.3414 34.976 37.8294 34.912C37.3814 34.784 36.9974 34.688 36.6774 34.624C36.2934 34.496 35.8774 34.304 35.4294 34.048C35.0454 33.792 34.6294 33.632 34.1814 33.568C33.7334 33.44 32.9654 33.376 31.8774 33.376C31.0454 33.376 30.6294 33.6 30.6294 34.048C31.3974 34.56 32.7734 34.912 34.7574 35.104C34.6934 35.168 34.6614 35.264 34.6614 35.392C34.6614 35.84 35.1414 36.48 36.1014 37.312C37.1254 38.08 37.6694 38.56 37.7334 38.752C37.9254 39.072 38.2134 39.776 38.5974 40.864C39.0454 41.952 39.3654 42.624 39.5574 42.88C39.1734 43.136 38.8534 43.424 38.5974 43.744C38.3414 44.064 38.2134 44.32 38.2134 44.512C38.4054 44.512 38.6614 44.576 38.9814 44.704C39.3654 44.832 39.5574 44.992 39.5574 45.184C39.5574 45.504 39.3974 46.08 39.0774 46.912C38.8214 47.68 38.5974 48.096 38.4054 48.16L38.9814 48.832L41.2854 47.68C41.2854 48.128 41.0294 48.512 40.5174 48.832C40.0054 49.152 39.5894 49.504 39.2694 49.888C39.0134 50.208 38.8854 50.848 38.8854 51.808L38.9814 53.536C38.9814 53.472 39.1094 53.376 39.3654 53.248C39.6214 53.056 39.8454 52.96 40.0374 52.96C40.1654 52.96 40.3254 53.024 40.5174 53.152C40.7094 53.28 40.8054 53.408 40.8054 53.536C40.1654 54.048 38.9814 54.304 37.2534 54.304C37.2534 54.944 37.0614 55.712 36.6774 56.608C35.2054 57.248 33.5414 57.824 31.6854 58.336C29.8294 58.784 28.1974 59.008 26.7894 59.008C25.7654 59.008 25.1894 58.88 25.0614 58.624C24.9974 58.368 24.9014 58.24 24.7734 58.24C24.3254 58.304 23.8454 58.432 23.3334 58.624C22.8854 58.752 22.5974 58.848 22.4694 58.912C20.9334 59.04 18.7254 59.104 15.8454 59.104V60.064ZM12.8694 55.84C14.2774 55.84 16.3894 55.968 19.2054 56.224C22.0214 56.48 24.1334 56.608 25.5414 56.608C27.6534 56.608 29.7014 56.352 31.6854 55.84C33.7334 55.264 34.9814 54.112 35.4294 52.384C35.6854 50.976 35.8454 49.728 35.9094 48.64C35.9734 47.552 36.0054 46.336 36.0054 44.992C36.0054 42.368 35.4614 40.448 34.3734 39.232C33.3494 37.952 32.0374 37.152 30.4374 36.832C28.9014 36.512 26.9494 36.352 24.5814 36.352C21.7014 36.352 19.1734 36.48 16.9974 36.736C14.8214 36.928 12.6774 37.408 10.5654 38.176C10.0534 38.304 9.70138 39.744 9.50938 42.496C9.31738 45.248 9.22137 47.904 9.22137 50.464C9.22137 51.616 9.31738 52.608 9.50938 53.44C9.70138 54.272 10.0534 55.104 10.5654 55.936L12.8694 55.84ZM9.89338 60.064C10.3414 60.064 11.1414 59.872 12.2934 59.488H9.89338V60.064ZM68.0611 23.968C68.0611 24.352 67.9651 24.832 67.7731 25.408C67.6451 25.92 67.5811 26.4 67.5811 26.848C67.9011 30.048 68.0611 32.256 68.0611 33.472V65.344C68.0611 65.536 67.9971 65.76 67.8691 66.016C67.8051 66.272 67.7091 66.464 67.5811 66.592C66.4291 66.592 65.4371 65.984 64.6051 64.768L64.0291 65.344H59.2291L58.6531 64.768V57.664C58.5891 57.344 58.4931 56.96 58.3651 56.512C58.2371 56 58.1411 55.584 58.0771 55.264C58.0771 54.56 58.1731 53.44 58.3651 51.904L58.6531 48.16C58.6531 44.256 58.5251 37.76 58.2691 28.672L58.0771 20.416L58.1731 18.304L57.8851 15.136C57.2451 9.184 56.9251 4.8 56.9251 1.984C56.9251 1.6 57.9171 1.312 59.9011 1.12C61.8851 0.927996 63.3571 0.831995 64.3171 0.831995C66.4931 0.831995 67.5811 1.408 67.5811 2.56C67.5811 3.008 67.3891 3.424 67.0051 3.808C66.6211 4.128 66.3971 4.32 66.3331 4.384C66.3331 6.17599 66.4611 8.128 66.7171 10.24C66.9731 12.352 67.1331 13.664 67.1971 14.176C67.7731 18.08 68.0611 21.344 68.0611 23.968ZM61.6291 4.288C60.4771 4.288 59.9011 4.512 59.9011 4.96C59.9011 5.28 59.9651 5.696 60.0931 6.20799C60.2211 6.656 60.3491 7.04 60.4771 7.36L61.5331 6.688V7.07199V7.36C61.5331 7.488 61.1811 8.256 60.4771 9.664L61.0531 9.76C63.1011 9.76 64.1251 8.896 64.1251 7.168C64.1251 6.208 63.9331 5.504 63.5491 5.056C63.1651 4.544 62.5251 4.288 61.6291 4.288ZM61.0531 13.312C61.6931 13.312 62.2691 12.96 62.7811 12.256C63.2931 11.488 63.5491 10.816 63.5491 10.24C62.9731 10.24 62.3011 10.464 61.5331 10.912C60.7651 11.36 60.3811 11.84 60.3811 12.352C60.3811 12.544 60.4451 12.768 60.5731 13.024C60.7651 13.216 60.9251 13.312 61.0531 13.312ZM64.0291 12.064C63.9011 12.256 63.4211 12.64 62.5891 13.216C61.8211 13.728 61.4371 14.144 61.4371 14.464H64.0291V12.064ZM64.6051 16.192C64.6051 15.808 64.1251 15.616 63.1651 15.616C61.8851 15.616 61.1171 15.744 60.8611 16C60.6051 16.256 60.4771 16.736 60.4771 17.44V18.016C60.4771 18.528 60.5731 19.168 60.7651 19.936C60.9571 20.64 61.1491 20.992 61.3411 20.992C62.1731 20.992 62.9091 20.448 63.5491 19.36C64.2531 18.208 64.6051 17.152 64.6051 16.192ZM65.3731 21.376C65.3731 20.416 65.1171 19.904 64.6051 19.84C64.5411 19.904 64.0611 20.32 63.1651 21.088C62.3331 21.792 61.7891 22.528 61.5331 23.296H62.8771C63.7091 23.296 64.3171 23.2 64.7011 23.008C65.1491 22.816 65.3731 22.368 65.3731 21.664V21.376ZM60.4771 30.496C61.5651 30.176 62.6211 29.472 63.6451 28.384C64.7331 27.232 65.2771 26.112 65.2771 25.024C65.2771 24.64 64.8611 24.448 64.0291 24.448C63.4531 24.448 62.8131 24.576 62.1091 24.832C61.4691 25.024 61.1171 25.312 61.0531 25.696L60.4771 30.496ZM65.4691 32.416C65.4691 31.2 65.4051 30.272 65.2771 29.632C65.2131 28.992 64.9891 28.672 64.6051 28.672L61.5331 31.744C61.5331 31.936 61.9811 32.096 62.8771 32.224C63.8371 32.352 64.7011 32.416 65.4691 32.416ZM61.5331 33.472C61.4691 33.664 61.3731 33.984 61.2451 34.432C61.1171 34.816 61.0531 35.168 61.0531 35.488C61.0531 35.936 61.1491 36.32 61.3411 36.64C61.5331 36.896 61.7251 37.024 61.9171 37.024C62.5571 37.024 63.2291 36.608 63.9331 35.776C64.6371 34.944 64.9891 34.176 64.9891 33.472H61.5331ZM65.2771 35.872C64.4451 36.192 63.6771 36.704 62.9731 37.408C62.3331 38.112 61.8531 38.72 61.5331 39.232L62.2051 39.904L65.2771 39.232V35.872ZM65.2771 40.48C63.7411 40.48 62.7171 40.736 62.2051 41.248C61.6931 41.696 61.4371 42.624 61.4371 44.032H62.2051L65.2771 41.056V40.48ZM65.7571 43.456C65.6931 43.392 65.5651 43.264 65.3731 43.072C65.2451 42.88 65.0851 42.784 64.8931 42.784C64.2531 42.784 63.6131 43.264 62.9731 44.224C62.3331 45.184 62.0131 45.984 62.0131 46.624C63.4851 46.624 64.4771 46.464 64.9891 46.144C65.5011 45.76 65.7571 44.864 65.7571 43.456ZM65.8531 52.288C65.8531 51.072 65.5331 50.464 64.8931 50.464C64.7011 50.528 64.3491 50.72 63.8371 51.04C63.3891 51.36 63.0691 51.616 62.8771 51.808C63.0691 51.488 63.5491 50.88 64.3171 49.984C65.0851 49.088 65.5651 48.32 65.7571 47.68H61.1491C61.1491 48.64 61.0211 50.016 60.7651 51.808C60.5091 53.728 60.3811 55.2 60.3811 56.224L60.4771 60.064C60.7331 60.832 61.0211 61.344 61.3411 61.6C61.7251 61.792 62.3331 61.888 63.1651 61.888H65.2771C65.6611 60.672 65.8531 59.424 65.8531 58.144C65.8531 57.76 65.7571 57.344 65.5651 56.896C65.3731 56.448 65.2771 56.128 65.2771 55.936C65.2771 55.744 65.3731 55.424 65.5651 54.976C65.7571 54.464 65.8531 53.76 65.8531 52.864V52.288ZM62.2051 54.784C62.5251 54.528 62.7811 54.368 62.9731 54.304C63.2291 54.176 63.5811 54.112 64.0291 54.112L64.6051 54.208C64.3491 54.208 63.9651 54.304 63.4531 54.496C62.9411 54.688 62.5251 54.784 62.2051 54.784ZM83.9319 50.368C84.0599 49.152 84.3159 46.784 84.6999 43.264C85.0839 39.68 85.4999 36.736 85.9479 34.432C85.1159 31.936 84.6999 26.976 84.6999 19.552L84.7959 8.992C84.3479 8.672 84.0919 8.096 84.0279 7.264C83.9639 6.368 83.9319 5.024 83.9319 3.232C83.9319 2.4 83.9959 1.92 84.1239 1.792L85.3719 0.639997H93.0519L93.7239 1.216C93.7879 1.27999 94.0119 2.592 94.3959 5.152L94.7799 7.168C95.2279 10.048 95.4519 13.888 95.4519 18.688C95.4519 21.952 95.1319 26.784 94.4919 33.184C93.8519 39.584 93.5319 44.416 93.5319 47.68C93.5319 48.896 93.5639 49.92 93.6279 50.752C93.6919 51.584 93.7239 52.064 93.7239 52.192L94.7799 53.44C94.3959 53.504 94.2039 53.792 94.2039 54.304C94.2039 54.624 94.2359 54.912 94.2999 55.168C94.4279 55.424 94.4919 55.648 94.4919 55.84C95.3239 55.904 96.4119 55.936 97.7559 55.936C99.0999 55.936 100.444 55.968 101.788 56.032L107.932 56.224C108.572 56.736 109.724 56.992 111.388 56.992C113.116 56.992 115.196 56.736 117.628 56.224C119.676 55.84 121.308 55.648 122.524 55.648C122.524 56.288 122.652 57.184 122.908 58.336C122.972 58.592 123.036 58.976 123.1 59.488C123.164 59.936 123.196 60.352 123.196 60.736C123.196 61.312 122.876 61.92 122.236 62.56C121.596 63.136 121.148 63.424 120.892 63.424L117.34 62.848C115.228 64.32 112.412 65.056 108.892 65.056C107.932 65.056 106.62 64.992 104.956 64.864L101.788 64.768L96.2199 64.864C92.8279 64.864 90.0119 64.544 87.7719 63.904C85.5319 63.2 84.4119 61.888 84.4119 59.968V50.368H83.9319ZM89.9799 7.648C89.8519 8.032 89.4679 8.864 88.8279 10.144C87.9959 11.424 87.5799 12.544 87.5799 13.504C89.3079 13.504 90.5559 13.376 91.3239 13.12C92.1559 12.8 92.5719 11.968 92.5719 10.624C92.5719 5.504 91.9639 2.944 90.7479 2.944C90.4919 2.944 89.3079 3.168 87.1959 3.616C87.3239 5.984 87.7399 7.168 88.4439 7.168C88.6359 7.168 88.7959 7.136 88.9239 7.07199C89.0519 7.008 89.1799 6.976 89.3079 6.976C89.5639 6.976 89.7879 7.2 89.9799 7.648ZM89.3079 14.272C88.6039 14.272 88.0599 14.464 87.6759 14.848L88.2519 14.944C88.6359 14.944 88.9239 14.912 89.1159 14.848C89.3079 14.784 89.4679 14.592 89.5959 14.272H89.3079ZM89.9799 19.552C89.0199 19.552 88.3799 19.68 88.0599 19.936C87.7399 20.192 87.5799 20.736 87.5799 21.568C87.5799 22.464 87.6119 23.008 87.6759 23.2C89.2759 22.688 90.4919 21.568 91.3239 19.84C92.1559 18.112 92.5719 16.352 92.5719 14.56C91.6759 14.56 90.7799 14.976 89.8839 15.808C88.9879 16.576 88.4439 17.024 88.2519 17.152C88.2519 17.664 88.5399 18.048 89.1159 18.304C89.7559 18.56 90.0759 18.88 90.0759 19.264L89.9799 19.552ZM87.6759 25.984C88.0599 26.112 88.6999 26.176 89.5959 26.176C91.0039 26.176 91.8999 25.824 92.2839 25.12C92.6679 24.352 92.8599 23.104 92.8599 21.376H91.8999L87.6759 25.984ZM87.6759 28.576C88.1879 28.576 88.6999 28.512 89.2119 28.384C89.7879 28.256 90.0759 28 90.0759 27.616L89.9799 27.328L87.6759 27.904V28.576ZM91.8999 28.288C91.5799 28.288 91.0359 28.672 90.2679 29.44C89.5639 30.208 89.1159 30.688 88.9239 30.88H91.8999V28.288ZM88.2519 34.048C88.6999 34.048 89.0839 33.856 89.4039 33.472C89.7239 33.024 89.9159 32.768 89.9799 32.704H88.2519V34.048ZM89.6919 38.848C89.6919 39.296 89.5319 39.776 89.2119 40.288C88.9559 40.736 88.7959 40.992 88.7319 41.056C88.4119 41.504 88.1239 41.984 87.8679 42.496C87.6759 43.008 87.5799 43.52 87.5799 44.032C89.4999 44.032 90.7159 43.488 91.2279 42.4C91.7399 41.248 91.9959 39.584 91.9959 37.408L91.8999 33.184C91.6439 33.376 91.1639 33.728 90.4599 34.24C89.7559 34.688 89.2119 35.2 88.8279 35.776C88.4439 36.352 88.2519 36.992 88.2519 37.696C88.2519 37.952 88.4759 38.176 88.9239 38.368C89.4359 38.496 89.6919 38.656 89.6919 38.848ZM86.5239 51.616C86.5239 51.872 86.6199 52.288 86.8119 52.864C87.0679 53.44 87.1959 53.792 87.1959 53.92C87.1959 54.432 87.3559 55.648 87.6759 57.568C88.8919 56.928 89.8839 56.128 90.6519 55.168C89.7559 54.784 89.1799 54.368 88.9239 53.92C89.3079 53.92 89.6919 53.824 90.0759 53.632C90.5239 53.44 90.7479 53.28 90.7479 53.152C90.7479 52.896 90.4919 52.576 89.9799 52.192C89.9799 52 90.1399 51.584 90.4599 50.944C90.7799 50.304 90.9399 49.728 90.9399 49.216H88.2519C89.5319 49.024 90.3639 48.544 90.7479 47.776C91.1959 47.008 91.4199 45.888 91.4199 44.416C89.8199 44.416 88.6679 44.672 87.9639 45.184C87.2599 45.632 86.8439 46.304 86.7159 47.2C86.5879 48.032 86.5239 49.504 86.5239 51.616ZM87.6759 58.72C90.1079 58.72 91.3239 58.336 91.3239 57.568C91.3239 57.376 91.2279 57.12 91.0359 56.8C90.9079 56.48 90.7799 56.288 90.6519 56.224L87.6759 58.72ZM87.6759 60.448C87.7399 60.896 88.1879 61.12 89.0199 61.12C90.1719 61.12 91.0039 60.992 91.5159 60.736C92.0279 60.48 92.5399 59.808 93.0519 58.72L92.4759 58.624C91.4519 58.624 90.4599 58.752 89.4999 59.008C88.6039 59.264 87.9959 59.744 87.6759 60.448ZM92.2839 60.736C93.1159 60.736 93.9799 60.832 94.8759 61.024C95.8359 61.152 96.4119 61.376 96.6039 61.696C97.1799 61.696 97.7879 61.312 98.4279 60.544C99.1319 59.776 99.5159 59.36 99.5799 59.296H99.0999C98.1399 59.296 97.3079 59.52 96.6039 59.968V58.912C93.7239 58.912 92.2839 59.52 92.2839 60.736ZM107.452 58.912C102.46 58.912 99.9639 59.904 99.9639 61.888C101.82 61.888 103.068 61.408 103.708 60.448C103.772 60.704 103.964 60.992 104.284 61.312C104.668 61.568 104.924 61.696 105.052 61.696C105.564 61.696 106.076 61.376 106.588 60.736C107.164 60.032 107.452 59.424 107.452 58.912ZM107.644 61.792C107.836 61.792 108.22 61.664 108.796 61.408C109.436 61.152 109.916 61.024 110.236 61.024C110.3 61.088 110.396 61.216 110.524 61.408C110.652 61.536 110.748 61.632 110.812 61.696C112.156 61.696 114.076 61.472 116.572 61.024C119.132 60.512 120.412 59.904 120.412 59.2C119.068 59.2 117.116 59.328 114.556 59.584C111.868 59.84 109.82 59.968 108.412 59.968L106.684 61.696L107.644 61.792ZM171.442 43.264C171.634 45.184 172.082 47.104 172.786 49.024C173.554 50.944 174.706 53.6 176.242 56.992C177.266 59.104 178.194 61.216 179.026 63.328C179.026 64.096 178.738 64.608 178.162 64.864C177.65 65.12 176.882 65.248 175.858 65.248C175.282 65.248 174.738 65.152 174.226 64.96C173.714 64.768 173.394 64.64 173.266 64.576C172.37 64.128 171.57 63.904 170.866 63.904C170.546 63.904 170.066 64 169.426 64.192C168.85 64.384 168.434 64.48 168.178 64.48C167.858 64.48 167.506 64.096 167.122 63.328C166.802 62.496 166.386 61.28 165.874 59.68C165.682 59.232 165.49 58.784 165.298 58.336C165.17 57.824 165.01 57.312 164.818 56.8C164.69 56.544 164.274 55.488 163.57 53.632C162.866 51.776 161.97 50.176 160.882 48.832C159.858 47.488 158.802 46.816 157.714 46.816C156.434 46.816 155.218 46.912 154.066 47.104C153.618 47.168 153.074 47.232 152.434 47.296C151.858 47.36 151.154 47.392 150.322 47.392C148.53 47.392 146.674 47.296 144.754 47.104C140.914 46.912 138.77 46.816 138.322 46.816C137.682 49.248 137.138 51.104 136.69 52.384C136.242 53.6 135.378 55.68 134.098 58.624C133.842 59.264 133.65 60.096 133.522 61.12C133.33 62.464 133.042 63.488 132.658 64.192C132.338 64.896 131.762 65.248 130.93 65.248C129.778 65.248 128.786 65.152 127.954 64.96C127.122 64.832 126.002 64.512 124.594 64C124.594 62.912 124.818 61.696 125.266 60.352C125.714 58.944 126.386 57.12 127.282 54.88L128.146 52.768C128.658 51.232 129.17 49.504 129.682 47.584C130.258 45.664 130.642 44.352 130.834 43.648C131.794 39.616 132.69 36.512 133.522 34.336C133.97 33.12 134.642 31.488 135.538 29.44C135.73 28.928 136.146 27.936 136.786 26.464C137.426 24.928 137.938 23.392 138.322 21.856L138.802 21.376C138.93 20.928 139.09 20.096 139.282 18.88C139.474 17.6 139.794 16.544 140.242 15.712C140.69 14.88 141.266 14.464 141.97 14.464C141.97 13.44 142.546 11.008 143.698 7.168C144.914 3.328 145.842 1.152 146.482 0.639997C149.81 0.639997 152.018 0.703997 153.106 0.831995C154.258 0.959997 155.154 1.408 155.794 2.17599C156.434 2.944 157.106 4.416 157.81 6.592L158.962 8.896L158.866 9.76C159.25 9.76 159.538 10.016 159.73 10.528C159.986 11.04 160.242 11.808 160.498 12.832C160.754 13.92 161.01 14.848 161.266 15.616C161.586 16.32 162.002 16.864 162.514 17.248C162.386 17.248 162.258 17.312 162.13 17.44C162.002 17.568 161.906 17.664 161.842 17.728C161.842 18.176 162.034 18.848 162.418 19.744C162.866 20.512 163.09 21.216 163.09 21.856H164.338C164.21 21.984 164.082 22.176 163.954 22.432C163.826 22.688 163.762 22.912 163.762 23.104C163.762 23.424 164.146 24.096 164.914 25.12C165.682 26.272 166.066 26.976 166.066 27.232L166.45 29.344C166.834 31.968 167.314 33.856 167.89 35.008C168.402 35.968 168.946 36.672 169.522 37.12C169.97 37.504 170.322 38.048 170.578 38.752C170.898 39.456 171.186 40.96 171.442 43.264ZM144.754 17.248C143.09 17.248 142.258 17.952 142.258 19.36L142.354 20.032C143.954 19.584 145.458 18.784 146.866 17.632C148.274 16.48 149.362 15.136 150.13 13.6L157.234 11.2C157.234 9.024 156.594 7.328 155.314 6.112C154.098 4.896 153.49 4.256 153.49 4.192L152.338 4.288C152.146 4.288 151.602 4.096 150.706 3.712C149.874 3.264 149.266 3.04 148.882 3.04C148.306 3.04 147.89 3.36 147.634 4C147.378 4.64 147.154 5.568 146.962 6.784C146.898 7.488 146.77 8.16 146.578 8.8C146.45 9.44 146.226 9.856 145.906 10.048H148.306C148.05 10.496 147.698 10.88 147.25 11.2C146.866 11.456 146.482 11.68 146.098 11.872C145.202 12.32 144.53 12.832 144.082 13.408C143.698 13.92 143.506 14.784 143.506 16C143.506 16.448 143.57 16.768 143.698 16.96C143.89 17.152 144.242 17.248 144.754 17.248ZM151.378 14.176C151.378 14.496 151.57 15.008 151.954 15.712C152.402 16.352 152.754 16.672 153.01 16.672C153.458 16.672 154.322 15.968 155.602 14.56C156.37 13.664 157.106 12.96 157.81 12.448C154.93 12.448 152.786 13.024 151.378 14.176ZM158.386 30.208C160.754 28.224 161.938 26.24 161.938 24.256C161.938 23.104 161.842 22.112 161.65 21.28C161.522 20.448 161.106 20.032 160.402 20.032C160.146 20.096 159.826 20.256 159.442 20.512C159.058 20.768 158.706 21.056 158.386 21.376L160.69 18.976C160.69 18.72 160.338 17.76 159.634 16.096C158.994 14.432 158.578 13.6 158.386 13.6H157.81L153.682 17.728L153.586 18.112C153.586 18.432 153.778 18.752 154.162 19.072C154.61 19.328 155.026 19.488 155.41 19.552C155.09 19.616 154.898 19.808 154.834 20.128C154.77 20.448 154.738 20.768 154.738 21.088C154.738 22.496 155.058 23.2 155.698 23.2C155.89 23.2 156.402 22.944 157.234 22.432C157.234 22.88 157.106 23.424 156.85 24.064C156.658 24.704 156.562 25.216 156.562 25.6C157.01 25.6 157.362 25.568 157.618 25.504C157.938 25.44 158.226 25.376 158.482 25.312C159.378 25.056 160.114 24.928 160.69 24.928C160.498 25.312 160.082 25.632 159.442 25.888C158.866 26.08 158.418 26.272 158.098 26.464C157.842 26.656 157.714 27.072 157.714 27.712V28.288C157.714 29.12 157.938 29.76 158.386 30.208ZM145.33 21.856C145.138 22.368 144.818 22.72 144.37 22.912C143.922 23.104 143.282 23.264 142.45 23.392C141.426 23.584 140.658 23.84 140.146 24.16C139.698 24.48 139.474 25.12 139.474 26.08C139.474 26.208 139.538 26.336 139.666 26.464C139.858 26.592 139.986 26.656 140.05 26.656C145.298 23.584 147.922 20.8 147.922 18.304H147.25C146.866 18.304 145.81 18.912 144.082 20.128C142.418 21.344 141.586 22.144 141.586 22.528C142.098 22.528 142.738 22.432 143.506 22.24C144.274 21.984 144.882 21.856 145.33 21.856ZM150.13 18.976C149.618 22.048 148.722 25.152 147.442 28.288C146.226 31.36 144.754 34.176 143.026 36.736L142.93 37.024C142.93 37.984 144.114 38.464 146.482 38.464C147.698 38.464 148.786 38.432 149.746 38.368C150.706 38.304 151.506 38.24 152.146 38.176C154.706 37.92 156.626 37.792 157.906 37.792C157.906 36.64 157.298 34.656 156.082 31.84C155.954 31.584 155.698 31.008 155.314 30.112C154.93 29.152 154.738 28.416 154.738 27.904L150.13 18.976ZM144.754 24.16C144.05 24.992 142.93 25.92 141.394 26.944C140.818 27.328 140.306 27.712 139.858 28.096C139.41 28.48 139.186 28.832 139.186 29.152C141.298 29.152 142.738 28.864 143.506 28.288C144.274 27.648 144.882 26.272 145.33 24.16H144.754ZM159.442 31.072C159.442 31.072 159.506 31.232 159.634 31.552C159.762 31.808 159.954 31.936 160.21 31.936C160.594 31.936 161.202 31.84 162.034 31.648C162.866 31.456 163.442 31.36 163.762 31.36L160.21 33.184L160.114 33.376C160.114 33.696 160.242 34.048 160.498 34.432C160.754 34.816 160.946 35.008 161.074 35.008C162.034 35.008 162.834 34.592 163.474 33.76C164.114 32.928 164.434 32.032 164.434 31.072C164.434 30.176 164.274 29.216 163.954 28.192C163.634 27.168 163.154 26.656 162.514 26.656C162.066 27.232 161.298 28.416 160.21 30.208C159.698 30.72 159.442 31.008 159.442 31.072ZM138.802 30.208C138.226 30.208 137.778 30.528 137.458 31.168C137.202 31.744 136.978 32.352 136.786 32.992C136.594 33.632 136.466 34.08 136.402 34.336C136.978 34.016 137.97 33.44 139.378 32.608C140.85 31.712 142.066 30.912 143.026 30.208H138.802ZM142.354 31.936C142.098 32.064 141.682 32.256 141.106 32.512C140.53 32.768 140.082 33.088 139.762 33.472C139.442 33.792 139.282 34.208 139.282 34.72C139.922 34.72 140.594 34.464 141.298 33.952C142.066 33.44 142.45 32.896 142.45 32.32L142.354 31.936ZM161.842 44.992C162.098 45.504 162.354 45.856 162.61 46.048C162.866 46.176 163.25 46.24 163.762 46.24C164.85 46.24 165.714 45.792 166.354 44.896C166.994 43.936 167.314 42.912 167.314 41.824C167.314 40.672 167.218 39.648 167.026 38.752C166.834 37.856 166.578 36.928 166.258 35.968C165.938 34.944 165.714 34.208 165.586 33.76C164.818 33.76 164.082 34.048 163.378 34.624C162.674 35.2 162.162 35.904 161.842 36.736H164.818V37.312C164.562 37.632 163.762 38.56 162.418 40.096C161.074 41.568 160.114 42.816 159.538 43.84L160.69 43.936C161.458 43.936 162.482 43.616 163.762 42.976C165.042 42.4 166.002 42.112 166.642 42.112C165.938 43.008 164.338 43.968 161.842 44.992ZM139.474 35.584C137.81 35.584 136.562 35.84 135.73 36.352C134.962 36.8 134.578 37.728 134.578 39.136L134.674 40.288C135.058 40.032 135.666 39.648 136.498 39.136C137.394 38.624 138.13 38.08 138.706 37.504C139.346 36.928 139.794 36.288 140.05 35.584H139.474ZM163.186 37.984C162.29 37.984 161.842 38.368 161.842 39.136L163.186 37.984ZM138.322 41.44V39.136L135.826 41.44H138.322ZM151.186 44.8C152.658 44.8 153.938 44.608 155.026 44.224C156.178 43.84 157.106 43.136 157.81 42.112C157.618 41.728 157.138 41.44 156.37 41.248C155.666 40.992 155.122 40.864 154.738 40.864C154.354 40.864 153.81 41.216 153.106 41.92C152.402 42.56 151.986 43.008 151.858 43.264V42.112C150.834 42.56 150.034 42.944 149.458 43.264C148.946 43.584 148.69 44.064 148.69 44.704L151.186 44.8ZM140.242 44.416C141.266 44.416 142.258 44.288 143.218 44.032C144.242 43.776 144.754 43.296 144.754 42.592C144.754 42.208 144.626 41.92 144.37 41.728C144.178 41.472 143.922 41.344 143.602 41.344C143.41 41.344 142.706 41.664 141.49 42.304C140.274 42.88 139.378 43.392 138.802 43.84C138.93 44.224 139.218 44.416 139.666 44.416H140.242ZM148.306 41.92C147.666 41.856 147.09 42.048 146.578 42.496C146.066 42.88 145.81 43.424 145.81 44.128C147.09 44.128 148.338 43.456 149.554 42.112L148.306 41.92ZM133.522 45.568C133.65 45.504 134.13 45.28 134.962 44.896C135.858 44.448 136.562 43.904 137.074 43.264C136.946 42.816 136.466 42.592 135.634 42.592C134.93 42.592 134.386 42.816 134.002 43.264C133.618 43.712 133.426 44.288 133.426 44.992L133.522 45.568ZM157.618 44.224C158.45 44.224 158.93 43.712 159.058 42.688C158.098 42.752 157.618 43.264 157.618 44.224ZM164.818 50.272C164.818 51.168 165.17 51.616 165.874 51.616C166.514 51.616 167.186 51.04 167.89 49.888C168.658 48.736 169.042 47.808 169.042 47.104V46.624C169.042 45.088 168.754 44.32 168.178 44.32C168.114 44.384 167.506 44.8 166.354 45.568C165.266 46.272 164.594 46.88 164.338 47.392C164.402 47.392 164.498 47.488 164.626 47.68C164.754 47.872 164.946 47.968 165.202 47.968C165.586 47.84 166.13 47.744 166.834 47.68C167.538 47.552 168.05 47.456 168.37 47.392C168.05 47.904 167.442 48.288 166.546 48.544C165.906 48.8 165.458 49.056 165.202 49.312C164.946 49.504 164.818 49.824 164.818 50.272ZM132.946 47.968C134.546 47.968 135.922 47.168 137.074 45.568H136.402C135.506 45.568 134.354 46.368 132.946 47.968ZM131.698 52.096C132.274 51.776 132.946 51.296 133.714 50.656C134.546 49.952 135.09 49.472 135.346 49.216L134.098 49.12C133.522 49.12 132.946 49.44 132.37 50.08C131.858 50.72 131.602 51.136 131.602 51.328L131.698 52.096ZM170.002 49.12C169.746 49.12 169.362 49.44 168.85 50.08C168.338 50.72 167.89 51.36 167.506 52C167.122 52.576 166.834 53.024 166.642 53.344C167.41 53.344 168.306 53.184 169.33 52.864C170.354 52.48 170.866 51.968 170.866 51.328C170.866 49.856 170.578 49.12 170.002 49.12ZM168.946 56.8L172.018 54.016V53.056C171.25 53.056 170.258 53.248 169.042 53.632C167.89 54.016 167.314 54.496 167.314 55.072C167.314 55.392 167.474 55.776 167.794 56.224C168.114 56.672 168.434 56.896 168.754 56.896L168.946 56.8ZM173.17 61.024C174.066 61.024 174.514 60.672 174.514 59.968C174.514 58.88 173.874 57.248 172.594 55.072C172.466 55.2 172.082 55.456 171.442 55.84C170.866 56.16 170.386 56.544 170.002 56.992C169.618 57.376 169.426 57.76 169.426 58.144C170.258 58.144 171.122 57.92 172.018 57.472L169.714 59.872C169.97 60.64 171.122 61.024 173.17 61.024ZM129.298 59.872C129.362 59.744 129.81 59.232 130.642 58.336C131.538 57.376 132.082 56.512 132.274 55.744L131.41 55.648C130.514 55.648 129.746 56.16 129.106 57.184C128.466 58.208 128.146 59.2 128.146 60.16C128.146 60.608 128.178 60.96 128.242 61.216C128.37 61.472 128.626 61.6 129.01 61.6C129.33 61.6 129.586 61.376 129.778 60.928C129.97 60.416 130.066 60.064 130.066 59.872H129.298ZM216.32 55.552C216.32 54.784 215.872 53.76 214.976 52.48C214.144 51.136 212.96 49.472 211.424 47.488C210.4 46.144 209.856 45.44 209.792 45.376L206.24 40.096C204.896 39.84 203.776 39.68 202.88 39.616C202.048 39.488 200.96 39.424 199.616 39.424C197.568 39.424 196.16 39.712 195.392 40.288C194.688 40.864 194.336 42.144 194.336 44.128C194.336 45.792 194.464 48.224 194.72 51.424C194.976 54.752 195.104 57.312 195.104 59.104C195.104 60.384 194.976 61.44 194.72 62.272C194.528 63.104 194.048 63.808 193.28 64.384C192.448 64.512 191.424 64.64 190.208 64.768C188.992 64.896 188 64.96 187.232 64.96C186.464 64.96 185.952 64.8 185.696 64.48C185.504 64.224 185.408 63.712 185.408 62.944C185.408 60.32 185.632 57.28 186.08 53.824C186.144 53.248 186.272 52 186.464 50.08C186.656 48.096 186.752 46.24 186.752 44.512C186.752 43.488 186.688 42.656 186.56 42.016C186.496 41.312 186.336 40.48 186.08 39.52V19.36C186.08 18.912 185.888 18.272 185.504 17.44C185.12 16.544 184.928 16 184.928 15.808C184.928 15.488 185.024 15.008 185.216 14.368C185.408 13.664 185.504 13.12 185.504 12.736C185.504 11.904 185.088 10.176 184.256 7.552C183.872 6.016 183.68 5.216 183.68 5.152C183.68 3.232 184.064 1.952 184.832 1.31199C185.664 0.671995 187.232 0.351995 189.536 0.351995C190.368 0.351995 191.488 0.479996 192.896 0.735996C193.216 0.799995 193.664 0.863997 194.24 0.927999C194.88 0.991999 195.424 1.024 195.872 1.024L198.656 0.831995C201.728 0.511995 203.904 0.351995 205.184 0.351995C209.088 0.351995 212.288 0.511995 214.784 0.831995C217.344 1.088 219.456 1.92 221.12 3.328C221.888 4.032 222.688 4.832 223.52 5.72799C224.352 6.56 224.928 7.136 225.248 7.456V8.704H225.824C225.888 9.728 226.08 10.784 226.4 11.872C226.848 14.112 227.072 15.84 227.072 17.056C227.072 22.88 225.888 27.392 223.52 30.592C223.008 31.232 222.208 32.096 221.12 33.184C220.096 34.272 219.52 34.816 219.392 34.816L218.72 34.72C218.144 34.72 217.728 34.944 217.472 35.392C217.28 35.776 217.088 35.968 216.896 35.968C216.64 35.968 216.352 35.872 216.032 35.68C215.712 35.488 215.552 35.328 215.552 35.2L215.744 34.816L218.624 31.84C218.496 31.776 218.304 31.744 218.048 31.744C217.856 31.68 217.664 31.648 217.472 31.648C216.896 31.648 216.448 31.776 216.128 32.032C215.872 32.288 215.584 32.736 215.264 33.376C214.88 34.208 214.432 34.688 213.92 34.816C213.728 34.816 212.544 35.2 210.368 35.968C210.56 36.416 211.04 36.736 211.808 36.928C212.64 37.056 213.152 37.312 213.344 37.696L212.192 38.944H214.784C214.784 38.816 214.72 38.592 214.592 38.272C214.528 37.952 214.496 37.664 214.496 37.408C214.496 36.96 214.72 36.64 215.168 36.448C215.424 37.28 215.84 38.144 216.416 39.04C217.056 39.872 217.44 40.352 217.568 40.48C218.4 41.44 219.008 42.304 219.392 43.072C220.416 46.08 221.792 49.152 223.52 52.288C225.312 55.424 227.712 59.232 230.72 63.712C230.72 64.416 230.016 64.896 228.608 65.152C227.2 65.408 225.856 65.536 224.576 65.536C223.552 65.536 222.848 65.344 222.464 64.96C222.144 64.576 221.856 64 221.6 63.232C221.408 62.464 221.024 62.08 220.448 62.08L216.32 55.552ZM189.536 3.904C189.664 4.032 189.984 4.288 190.496 4.672C191.072 5.056 191.616 5.344 192.128 5.536C192.64 5.728 193.12 5.824 193.568 5.824L194.336 5.72799L192.608 3.904L193.28 3.328C191.616 2.944 190.304 2.752 189.344 2.752C188.96 2.752 188.576 2.784 188.192 2.848C187.872 2.912 187.552 3.072 187.232 3.328C187.936 4.224 188.448 4.672 188.768 4.672C189.28 4.672 189.536 4.416 189.536 3.904ZM202.112 3.328C202.304 3.456 202.688 4 203.264 4.96C203.84 5.856 204.352 6.304 204.8 6.304C205.12 6.304 205.568 6.208 206.144 6.016C206.784 5.76 207.296 5.632 207.68 5.632C207.68 3.776 207.392 2.848 206.816 2.848L202.112 3.328ZM195.008 4.576C195.328 5.28 195.872 5.76 196.64 6.016C197.408 6.208 198.336 6.304 199.424 6.304H200.384C201.536 6.304 202.112 6.112 202.112 5.72799L200.96 3.328H196.16L195.008 4.576ZM208.16 3.328C208.16 4.672 208.48 5.696 209.12 6.4C209.824 7.104 210.848 7.456 212.192 7.456C212.384 7.136 212.544 6.688 212.672 6.112C212.8 5.472 213.024 4.96 213.344 4.576L213.92 5.152C214.176 5.024 214.336 4.864 214.4 4.672C214.528 4.48 214.592 4.352 214.592 4.288C214.592 4.16 214.528 3.968 214.4 3.712C214.272 3.456 214.112 3.328 213.92 3.328H208.16ZM224.672 14.272C224.672 13.504 224.352 12.352 223.712 10.816C223.072 9.28 222.272 7.904 221.312 6.688C220.416 5.408 219.52 4.704 218.624 4.576C217.024 4.256 216.064 4.032 215.744 3.904C215.168 4.48 214.88 5.856 214.88 8.032V8.8C215.392 8.8 216 8.704 216.704 8.512C217.472 8.32 218.08 8.224 218.528 8.224L218.624 8.608C218.624 8.672 218.4 8.96 217.952 9.472C217.504 9.92 217.152 10.24 216.896 10.432L217.472 11.104L222.752 12.256L222.848 12.544C222.848 12.8 222.72 13.056 222.464 13.312C222.272 13.504 222.016 13.6 221.696 13.6V13.984L224.576 14.656L224.672 14.272ZM193.76 29.44C194.336 30.336 195.808 30.784 198.176 30.784C200.16 30.784 201.6 30.752 202.496 30.688C203.456 30.624 204.48 30.4 205.568 30.016C206.208 29.888 207.264 29.76 208.736 29.632C210.912 29.44 212.576 29.184 213.728 28.864C214.88 28.544 215.808 27.904 216.512 26.944C217.216 25.984 217.568 24.544 217.568 22.624C217.568 20.768 217.376 19.04 216.992 17.44C216.608 15.84 216 14.112 215.168 12.256C212.928 10.848 210.528 9.984 207.968 9.664C205.472 9.344 202.176 9.184 198.08 9.184C196.8 9.184 195.776 9.312 195.008 9.568C194.304 9.76 193.728 10.272 193.28 11.104C193.536 13.152 193.696 14.848 193.76 16.192C193.824 17.472 193.856 19.744 193.856 23.008L193.76 29.44ZM218.144 11.68C217.824 11.68 217.664 11.872 217.664 12.256C217.664 12.64 217.824 12.832 218.144 12.832C218.272 12.832 218.368 12.768 218.432 12.64C218.496 12.512 218.528 12.384 218.528 12.256C218.528 12.128 218.496 12 218.432 11.872C218.368 11.744 218.272 11.68 218.144 11.68ZM190.016 12.256C189.504 12.256 189.12 12.448 188.864 12.832C188.608 13.216 188.48 13.664 188.48 14.176C188.48 15.136 188.736 16.384 189.248 17.92C189.824 19.456 190.112 20.288 190.112 20.416C190.816 19.584 191.168 18.624 191.168 17.536C191.168 17.152 191.04 16.288 190.784 14.944C190.528 13.6 190.336 12.704 190.208 12.256H190.016ZM220.16 20.992C220.16 22.08 220.288 22.976 220.544 23.68C220.864 24.32 221.504 24.64 222.464 24.64C223.424 24.64 224.032 23.776 224.288 22.048C224.544 20.32 224.672 18.656 224.672 17.056H223.136C223.136 16.928 223.072 16.832 222.944 16.768C222.816 16.64 222.752 16.512 222.752 16.384L224 15.808C223.04 15.232 221.344 14.944 218.912 14.944C218.912 15.84 219.36 16.992 220.256 18.4C221.152 19.744 221.984 20.672 222.752 21.184C222.752 21.312 222.688 21.44 222.56 21.568C222.496 21.696 222.4 21.76 222.272 21.76C222.016 21.76 221.664 21.632 221.216 21.376C220.832 21.12 220.48 20.992 220.16 20.992ZM221.696 26.848C220.352 26.848 219.68 27.392 219.68 28.48C220.384 28.48 220.896 28.384 221.216 28.192C221.536 27.936 221.696 27.488 221.696 26.848ZM218.624 29.44C218.432 29.504 218.208 29.6 217.952 29.728C217.76 29.856 217.6 29.952 217.472 30.016H219.392C219.328 29.888 219.2 29.76 219.008 29.632C218.88 29.504 218.752 29.44 218.624 29.44ZM189.152 34.816L189.632 33.952L188.96 32.128L189.152 34.816ZM210.944 33.376C209.344 33.376 208.544 34.048 208.544 35.392C208.672 35.328 208.992 35.232 209.504 35.104C210.08 34.912 210.624 34.688 211.136 34.432C211.712 34.112 212.064 33.792 212.192 33.472L210.944 33.376ZM198.656 33.76C198.656 33.952 199.136 34.112 200.096 34.24C201.056 34.368 202.016 34.464 202.976 34.528C204.576 34.656 205.44 34.752 205.568 34.816C206.08 34.56 206.336 34.112 206.336 33.472L198.656 33.76ZM194.336 34.144C194.592 34.592 194.912 34.816 195.296 34.816C195.424 34.816 195.584 34.784 195.776 34.72C196.032 34.592 196.16 34.4 196.16 34.144H194.336ZM207.872 36.352C207.872 37.12 208 37.664 208.256 37.984C208.576 38.304 209.152 38.464 209.984 38.464C209.984 37.952 209.76 37.472 209.312 37.024C208.864 36.576 208.384 36.352 207.872 36.352ZM188.48 39.52C188.48 39.84 188.544 40.288 188.672 40.864C188.864 41.376 189.024 41.728 189.152 41.92C190.304 40.768 190.88 39.872 190.88 39.232C190.88 38.528 190.432 38.176 189.536 38.176C188.832 38.176 188.48 38.624 188.48 39.52ZM209.792 40.576H210.944V40.096H209.792V40.576ZM211.616 42.496C213.408 42.944 215.04 43.168 216.512 43.168C216.512 42.336 216.256 41.824 215.744 41.632C215.232 41.376 214.4 41.248 213.248 41.248C212.096 41.248 211.52 41.536 211.52 42.112L211.616 42.496ZM192.032 41.344C190.752 41.792 190.112 42.4 190.112 43.168C190.944 43.168 191.584 42.56 192.032 41.344ZM189.152 46.528C189.152 46.656 189.184 46.816 189.248 47.008C189.376 47.136 189.472 47.2 189.536 47.2C190.24 46.816 190.752 46.464 191.072 46.144C191.392 45.76 191.552 45.312 191.552 44.8L191.456 44.224C189.92 44.928 189.152 45.696 189.152 46.528ZM213.344 44.992C214.688 44.992 215.488 44.736 215.744 44.224H213.344V44.992ZM218.816 51.04C218.816 52.32 218.976 53.44 219.296 54.4C219.616 55.36 220.224 56.544 221.12 57.952C221.568 58.72 222.08 59.52 222.656 60.352C223.296 61.184 223.744 61.76 224 62.08H225.824C225.248 60.288 224.288 58.368 222.944 56.32C222.176 55.168 221.568 54.112 221.12 53.152C220.992 52.896 220.512 51.84 219.68 49.984C218.464 46.656 217.536 44.928 216.896 44.8C216.768 44.864 216.448 45.024 215.936 45.28C215.424 45.472 215.168 45.728 215.168 46.048C215.488 46.048 215.84 46.144 216.224 46.336C216.672 46.464 216.896 46.624 216.896 46.816C216.896 47.072 216.768 47.328 216.512 47.584C216.32 47.84 216.224 48.128 216.224 48.448C216.224 49.216 216.64 49.6 217.472 49.6L218.144 49.504L216.896 50.176C216.896 51.008 217.056 51.424 217.376 51.424C217.568 51.424 217.792 51.36 218.048 51.232C218.368 51.104 218.624 51.04 218.816 51.04ZM192.032 46.528C191.392 46.528 190.784 46.816 190.208 47.392C189.696 47.968 189.44 48.608 189.44 49.312C190.528 49.312 191.264 49.152 191.648 48.832C192.032 48.448 192.352 47.68 192.608 46.528H192.032ZM190.88 50.08C190.112 50.08 189.6 50.176 189.344 50.368C189.152 50.56 189.056 51.008 189.056 51.712L189.152 52.48C190.368 51.84 191.328 51.072 192.032 50.176L190.88 50.08ZM189.056 60.256C189.056 61.024 189.728 61.408 191.072 61.408C191.584 61.408 191.968 60.512 192.224 58.72C192.48 56.864 192.608 55.296 192.608 54.016C192.608 52.608 192.32 51.904 191.744 51.904C191.04 51.904 190.4 52.224 189.824 52.864C189.312 53.504 189.056 54.176 189.056 54.88C189.056 55.584 189.216 56 189.536 56.128C189.088 56.32 188.736 57.088 188.48 58.432C188.864 58.432 189.472 58.048 190.304 57.28C191.136 56.448 191.616 56.032 191.744 56.032L192.032 56.128C191.904 56.704 191.392 57.376 190.496 58.144C189.536 58.848 189.056 59.552 189.056 60.256ZM253.015 10.24C253.015 9.664 252.087 9.28 250.231 9.088C248.375 8.896 246.487 8.8 244.567 8.8L239.863 8.896C236.151 8.896 234.295 8.544 234.295 7.84C234.295 7.008 234.583 6.144 235.159 5.248C235.415 4.8 235.639 4.32 235.831 3.808C236.087 3.232 236.215 2.624 236.215 1.984C236.279 1.92 236.471 1.664 236.791 1.216C237.111 0.767998 238.455 0.543999 240.823 0.543999V1.408C244.599 1.408 247.895 1.44 250.711 1.504C253.527 1.568 255.895 1.632 257.815 1.696C265.495 1.952 271.223 2.08 274.999 2.08C277.495 2.08 279.383 2.048 280.663 1.984C281.431 2.24 281.815 3.136 281.815 4.672V5.632C281.815 6.848 281.623 7.776 281.239 8.41599L273.463 9.088C272.247 9.152 270.487 9.44 268.183 9.952C266.007 10.464 264.215 10.752 262.807 10.816C262.359 12.48 262.135 14.976 262.135 18.304C262.135 21.184 262.263 25.504 262.519 31.264C262.775 36.896 262.903 41.216 262.903 44.224C262.903 45.76 262.807 49.12 262.615 54.304C262.423 56.416 262.327 58.72 262.327 61.216C262.327 61.408 262.295 61.888 262.231 62.656C262.167 63.36 261.943 63.872 261.559 64.192C261.175 64.576 260.599 64.768 259.831 64.768C259.575 64.768 259.223 64.64 258.775 64.384C258.327 64.192 257.975 64.096 257.719 64.096C257.527 64.224 257.143 64.352 256.567 64.48C256.055 64.608 255.575 64.672 255.127 64.672C254.871 64.672 254.391 64.416 253.687 63.904C253.047 63.392 252.727 63.072 252.727 62.944L253.015 13.792V10.24ZM239.095 5.824C240.567 5.824 241.783 5.76 242.743 5.632C243.767 5.504 244.535 5.056 245.047 4.288C244.791 4.288 243.831 4.096 242.167 3.712C240.567 3.264 239.543 3.04 239.095 3.04V5.824ZM249.751 3.712C249.111 3.712 248.279 3.904 247.255 4.288C246.295 4.608 245.559 4.96 245.047 5.344L248.599 5.44C250.647 5.44 251.671 5.152 251.671 4.576C251.671 4 251.031 3.712 249.751 3.712ZM256.855 11.392C256.855 11.584 256.695 12 256.375 12.64C256.119 13.216 255.895 13.792 255.703 14.368C256.215 14.368 256.823 13.92 257.527 13.024C258.295 12.128 258.679 11.264 258.679 10.432C258.679 10.304 258.519 10.144 258.199 9.952C257.943 9.76 257.687 9.664 257.431 9.664C257.431 8 257.623 6.88 258.007 6.304C258.391 5.728 258.583 5.408 258.583 5.344V7.456C259.287 7.456 260.087 7.072 260.983 6.304C261.879 5.536 262.327 4.768 262.327 4C260.535 4 259.063 4.256 257.911 4.768C256.823 5.216 256.279 6.176 256.279 7.648C256.279 8.608 256.375 9.408 256.567 10.048C256.759 10.624 256.855 11.072 256.855 11.392ZM252.727 5.344C252.855 5.856 253.271 6.112 253.975 6.112C254.807 6.112 255.383 6.016 255.703 5.824C256.087 5.568 256.471 5.056 256.855 4.288L255.319 4.096C254.679 4.096 254.135 4.16 253.687 4.288C253.239 4.416 252.919 4.768 252.727 5.344ZM269.335 6.112C269.399 6.112 269.495 6.016 269.623 5.824C269.815 5.568 269.943 5.344 270.007 5.152C270.007 4.512 269.207 4.192 267.607 4.192L265.207 4.288V6.112H269.335ZM278.551 5.344C278.551 4.896 278.327 4.608 277.879 4.48C277.495 4.352 276.791 4.288 275.767 4.288C275.511 4.288 274.743 4.384 273.463 4.576C272.247 4.704 271.479 4.832 271.159 4.96L271.639 5.344H278.551ZM263.383 6.112H263.959V4.96H263.383V6.112ZM258.583 13.12C258.519 13.44 258.295 13.888 257.911 14.464C257.591 14.976 257.431 15.328 257.431 15.52C258.519 15.136 259.191 14.496 259.447 13.6C259.703 12.64 259.831 11.712 259.831 10.816C259.831 9.92 259.831 9.344 259.831 9.088L258.583 13.12ZM258.583 17.248C258.391 17.632 258.103 18.272 257.719 19.168C257.335 20 257.047 20.736 256.855 21.376L257.431 21.568C258.263 21.568 258.679 20.8 258.679 19.264L258.583 17.248ZM257.431 22.72C256.663 22.784 256.183 23.104 255.991 23.68C255.799 24.256 255.703 25.088 255.703 26.176C256.919 25.152 257.527 24.192 257.527 23.296L257.431 22.72ZM256.855 26.848H258.199V24.448L256.855 26.848ZM255.031 31.264C255.031 32.16 255.255 32.64 255.703 32.704C256.855 31.68 257.815 30.496 258.583 29.152C258.583 29.024 258.519 28.928 258.391 28.864C258.327 28.736 258.263 28.64 258.199 28.576C257.111 28.576 256.311 28.768 255.799 29.152C255.287 29.472 255.031 30.08 255.031 30.976V31.264ZM258.583 30.976C258.007 31.36 257.463 31.968 256.951 32.8C256.503 33.632 256.279 34.432 256.279 35.2C257.047 35.2 257.751 35.072 258.391 34.816C259.031 34.496 259.351 34.016 259.351 33.376C259.351 32.544 259.095 31.744 258.583 30.976ZM255.031 38.656C255.031 38.976 255.063 39.232 255.127 39.424C255.191 39.616 255.383 39.744 255.703 39.808C256.343 39.232 257.015 38.592 257.719 37.888C258.423 37.12 258.935 36.384 259.255 35.68C258.231 35.68 257.271 35.968 256.375 36.544C255.479 37.056 255.031 37.76 255.031 38.656ZM255.703 43.36C257.047 42.912 258.007 42.4 258.583 41.824C259.159 41.248 259.447 40.384 259.447 39.232C259.447 38.976 259.415 38.656 259.351 38.272C259.351 37.888 259.319 37.6 259.255 37.408L255.703 42.112V43.36ZM259.831 45.76L259.927 44.992V44.704C259.927 43.936 259.703 43.488 259.255 43.36L256.279 47.488L259.831 45.76ZM256.279 44.512C255.895 44.704 255.703 45.12 255.703 45.76C255.895 45.76 256.055 45.632 256.183 45.376C256.311 45.12 256.375 44.96 256.375 44.896L256.279 44.512ZM254.551 50.848C254.551 51.104 254.743 51.456 255.127 51.904C255.575 52.288 255.863 52.48 255.991 52.48C255.991 51.52 256.535 50.624 257.623 49.792C257.751 49.664 258.007 49.408 258.391 49.024C258.839 48.576 259.127 48.064 259.255 47.488H258.967C258.327 47.488 257.431 47.84 256.279 48.544C255.127 49.184 254.551 49.952 254.551 50.848ZM259.543 49.216C259.095 49.408 258.615 49.76 258.103 50.272C257.591 50.784 257.335 51.296 257.335 51.808C258.167 51.808 258.743 51.648 259.063 51.328C259.447 50.944 259.703 50.272 259.831 49.312L259.543 49.216ZM255.127 60.064C255.447 60.384 255.767 60.544 256.087 60.544C256.471 60.544 257.143 59.712 258.103 58.048C259.063 56.32 259.543 55.168 259.543 54.592H258.583V52.96L255.703 54.016L255.127 60.064ZM258.199 56.32H257.431L258.199 55.84V56.32ZM258.583 59.392C257.623 60.352 257.047 61.12 256.855 61.696C257.367 61.568 257.783 61.376 258.103 61.12C258.487 60.8 258.679 60.448 258.679 60.064L258.583 59.392Z" fill="white"/>
</g>
<defs>
<filter id="filter0_i_33_90" x="0.965332" y="0.35199" width="280.85" height="70.24" filterUnits="userSpaceOnUse" color-interpolation-filters="sRGB">
<feFlood flood-opacity="0" result="BackgroundImageFix"/>
<feBlend mode="normal" in="SourceGraphic" in2="BackgroundImageFix" result="shape"/>
<feColorMatrix in="SourceAlpha" type="matrix" values="0 0 0 0 0 0 0 0 0 0 0 0 0 0 0 0 0 0 127 0" result="hardAlpha"/>
<feOffset dy="4"/>
<feGaussianBlur stdDeviation="2"/>
<feComposite in2="hardAlpha" operator="arithmetic" k2="-1" k3="1"/>
<feColorMatrix type="matrix" values="0 0 0 0 0 0 0 0 0 0 0 0 0 0 0 0 0 0 0.25 0"/>
<feBlend mode="normal" in2="shape" result="effect1_innerShadow_33_90"/>
</filter>
</defs>
</svg>
